<svg width="40" height="40" viewBox="0 0 40 40" fill="none" xmlns="http://www.w3.org/2000/svg">
<path d="M5.87936 35.6633L2.73749 0.422363H37.2625L34.1175 35.658L19.979 39.5777L5.87936 35.6633Z" fill="#1572B6"/>
<path d="M20.0003 36.5818L31.425 33.4143L34.1128 3.30371H20.0003V36.5818Z" fill="#33A9DC"/>
<path d="M20.0003 16.0714H25.7197L26.1147 11.6454H20.0003V7.32324H30.8384L30.7347 8.48293L29.6722 20.3936H20.0003V16.0714Z" fill="white"/>
<path d="M20.0259 27.2964L20.0069 27.302L15.1934 26.0024L14.8856 22.5552H10.5475L11.1528 29.3417L20.0062 31.7989L20.0259 31.7933V27.2964Z" fill="#EBEBEB"/>
<path d="M25.3522 20.2109L24.8315 25.9991L20.0109 27.3003V31.7972L28.8715 29.3416L28.9365 28.6112L29.6884 20.2109H25.3522Z" fill="white"/>
<path d="M20.015 7.32324V11.6454H9.57499L9.48842 10.6742L9.29155 8.48293L9.18811 7.32324H20.015ZM20.0003 16.072V20.3942H15.2475L15.1609 19.4229L14.9637 17.2317L14.8606 16.072H20.0003Z" fill="#EBEBEB"/>
</svg>
