<svg width="40" height="40" viewBox="0 0 40 40" fill="none" xmlns="http://www.w3.org/2000/svg">
<path d="M30.625 0H9.375C4.19733 0 0 4.19733 0 9.375V30.625C0 35.8027 4.19733 40 9.375 40H30.625C35.8027 40 40 35.8027 40 30.625V9.375C40 4.19733 35.8027 0 30.625 0Z" fill="#242938"/>
<path d="M35.625 28.584C35.1701 28.7563 34.6679 28.756 34.2132 28.5831C33.7586 28.4102 33.3831 28.0767 33.1577 27.6457C31.7416 25.5258 30.1778 23.5016 28.6748 21.434L28.0231 20.5652C26.2334 22.963 24.4438 25.2652 22.8105 27.6544C22.5977 28.0664 22.2425 28.3869 21.811 28.5563C21.3794 28.7258 20.901 28.7325 20.4648 28.5754L27.1805 19.5662L20.9339 11.4255C21.3836 11.2632 21.8755 11.261 22.3266 11.4192C22.7777 11.5775 23.1603 11.8866 23.41 12.2943C24.8608 14.4143 26.4681 16.4385 28.0666 18.5844C29.6739 16.4558 31.2637 14.4229 32.7494 12.3204C32.9632 11.9151 33.3187 11.6026 33.748 11.4424C34.1773 11.2822 34.6506 11.2855 35.0777 11.4516L32.6537 14.6662C31.5678 16.0996 30.4992 17.5418 29.3698 18.9405C29.2788 19.022 29.206 19.1218 29.1562 19.2333C29.1063 19.3448 29.0806 19.4656 29.0806 19.5878C29.0806 19.71 29.1063 19.8308 29.1562 19.9423C29.206 20.0538 29.2788 20.1536 29.3698 20.2351C31.4462 22.9891 33.5052 25.7518 35.625 28.584ZM4.375 19.4532C4.5575 18.5844 4.67031 17.6374 4.92234 16.7513C6.42531 11.4083 12.5502 9.18413 16.7638 12.4943C19.2311 14.4318 19.848 17.1771 19.7264 20.2699H5.82594C5.6 25.7954 9.58766 29.1315 14.6873 27.4287C15.5146 27.1328 16.2552 26.6355 16.8422 25.9818C17.4292 25.328 17.8441 24.5384 18.0495 23.6841C18.3189 22.8154 18.7533 22.6677 19.5786 22.9196C19.4426 23.9772 19.0687 24.9903 18.4849 25.8826C17.901 26.775 17.1225 27.5233 16.2078 28.0715C14.6965 28.8981 12.9625 29.2256 11.2539 29.0071C9.54522 28.7887 7.9494 28.0355 6.69469 26.8552C5.45336 25.4595 4.70278 23.6959 4.5575 21.8337C4.5575 21.5383 4.44453 21.2429 4.38375 20.9649C4.378 20.461 4.37509 19.9571 4.375 19.4532ZM5.84328 19.0796H18.4145C18.3362 15.0746 15.8081 12.2337 12.4373 12.2077C8.68422 12.1555 5.99969 14.9355 5.83453 19.0623L5.84328 19.0796Z" fill="white"/>
</svg>
