<svg width="40" height="40" viewBox="0 0 40 40" fill="none" xmlns="http://www.w3.org/2000/svg">
<path d="M5.94906 35.5862L2.8225 0.519043H37.1775L34.0475 35.5809L19.9791 39.4809L5.94906 35.5862Z" fill="#E44D26"/>
<path d="M20 36.5L31.3681 33.3481L34.0428 3.38623H20V36.5Z" fill="#F16529"/>
<path d="M20 16.392H14.3087L13.9156 11.9876H20V7.68701H9.21531L9.31843 8.84076L10.3753 20.6929H20V16.392ZM20 27.5617L19.9809 27.567L15.1912 26.2733L14.8853 22.8436H10.5675L11.17 29.5964L19.9803 32.042L20 32.0367V27.5617Z" fill="#EBEBEB"/>
<path d="M19.985 16.392V20.693H25.2809L24.7819 26.2708L19.985 27.5655V32.0401L28.8022 29.5964L28.8669 28.8698L29.8775 17.547L29.9822 16.392H28.8234H19.985ZM19.985 7.68701V11.9876H30.3737L30.46 11.0214L30.6562 8.84076L30.7591 7.68701H19.985Z" fill="white"/>
</svg>
