<svg width="40" height="40" viewBox="0 0 40 40" fill="none" xmlns="http://www.w3.org/2000/svg">
<path d="M30.625 0H9.375C4.19733 0 0 4.19733 0 9.375V30.625C0 35.8027 4.19733 40 9.375 40H30.625C35.8027 40 40 35.8027 40 30.625V9.375C40 4.19733 35.8027 0 30.625 0Z" fill="#023430"/>
<path d="M26.7458 16.8111C25.0994 9.54844 21.6681 7.615 20.7928 6.24828C20.4317 5.64629 20.1119 5.02042 19.8358 4.375C19.7895 5.02031 19.7045 5.42656 19.1561 5.91594C18.055 6.89766 13.3784 10.7086 12.9848 18.9606C12.6181 26.6547 18.6411 31.3989 19.4367 31.8894C20.0486 32.1905 20.7938 31.8958 21.1573 31.6194C24.0606 29.6269 28.0275 24.3147 26.7489 16.8111" fill="#10AA50"/>
<path d="M20.0852 27.7925C19.9336 29.6969 19.825 30.8034 19.44 31.8917C19.44 31.8917 19.6927 33.7047 19.8702 35.6251H20.4981C20.6481 34.2728 20.8768 32.9303 21.1831 31.6045C20.3702 31.2045 20.1164 29.4636 20.0852 27.7925Z" fill="#B8C4C2"/>
<path d="M21.182 31.6056C20.3605 31.2261 20.1228 29.4484 20.0862 27.7925C20.2893 25.0608 20.3486 22.3203 20.2637 19.5823C20.2206 18.1458 20.2841 6.27639 19.9098 4.53857C20.1657 5.12723 20.4607 5.69809 20.7928 6.24732C21.6681 7.61514 25.1005 9.54858 26.7458 16.8112C28.0275 24.302 24.0822 29.6001 21.182 31.6056Z" fill="#12924F"/>
</svg>
