<svg width="51" height="26" viewBox="0 0 51 26" fill="none" xmlns="http://www.w3.org/2000/svg">
<path d="M25.2233 25.796C25.0504 25.796 24.889 25.7579 24.7391 25.6912L23.2059 24.939C22.9753 24.8342 23.0906 24.7961 23.1599 24.7771C23.4711 24.6914 23.5287 24.6723 23.8515 24.52C23.8861 24.5009 23.9323 24.5105 23.9668 24.5295L25.1427 25.1104C25.1888 25.1294 25.2464 25.1294 25.2809 25.1104L29.8806 22.9107C29.9267 22.8916 29.9499 22.8535 29.9499 22.8059V18.416C29.9499 18.3683 29.9267 18.3304 29.8806 18.3112L25.2809 16.1211C25.2348 16.102 25.1772 16.102 25.1427 16.1211L20.543 18.3112C20.4969 18.3303 20.4737 18.3779 20.4737 18.416V22.8058C20.4737 22.844 20.4969 22.8915 20.543 22.9107L21.7995 23.5105C22.4797 23.7962 22.9062 23.4629 22.9062 23.1296V18.7969C22.9062 18.7398 22.9639 18.6826 23.0445 18.6826H23.6324C23.7017 18.6826 23.7708 18.7302 23.7708 18.7969V23.1296C23.7708 23.8819 23.2751 24.32 22.4105 24.32C22.1454 24.32 21.9379 24.32 21.3499 24.0819L20.1395 23.5105C19.8398 23.3678 19.6553 23.1011 19.6553 22.8154V18.4255C19.6553 18.1399 19.8398 17.8732 20.1395 17.7304L24.7391 15.5306C25.0274 15.3973 25.4194 15.3973 25.7075 15.5306L30.3071 17.7304C30.6069 17.8732 30.7914 18.1399 30.7914 18.4255V22.8154C30.7914 23.1011 30.6069 23.3678 30.3071 23.5105L25.7075 25.7103C25.5576 25.7675 25.3847 25.796 25.2233 25.796ZM26.6413 22.7773C24.624 22.7773 24.209 22.0155 24.209 21.368C24.209 21.3108 24.2666 21.2537 24.3473 21.2537H24.9468C25.0159 21.2537 25.0735 21.2918 25.0735 21.349C25.1658 21.8536 25.4309 22.1012 26.6529 22.1012C27.6212 22.1012 28.0364 21.9203 28.0364 21.4918C28.0364 21.2442 27.921 21.0633 26.4108 20.9395C25.1542 20.8347 24.3704 20.6062 24.3704 19.7777C24.3704 19.0064 25.1543 18.5493 26.4685 18.5493C27.944 18.5493 28.6703 18.9683 28.7626 19.8824C28.7626 19.911 28.7511 19.9396 28.728 19.9682C28.7048 19.9872 28.6703 20.0062 28.6357 20.0062H28.0363C27.9786 20.0062 27.921 19.9682 27.9095 19.9205C27.7711 19.3968 27.4138 19.2254 26.4685 19.2254C25.4079 19.2254 25.281 19.5302 25.281 19.7586C25.281 20.0348 25.4309 20.1205 26.8604 20.2728C28.2783 20.4253 28.947 20.6443 28.947 21.4632C28.9355 22.3012 28.1055 22.7773 26.6413 22.7773Z" fill="#539E43"/>
<path d="M10.4372 8.66006L10.4372 8.66007L10.4412 8.66193C10.4453 8.66383 10.4488 8.6657 10.4517 8.66743L10.4625 14.5068L7.82193 13.2604L7.82194 13.2604L7.81918 13.2591C7.81511 13.2572 7.81166 13.2554 7.80877 13.2537V10.3701C7.80877 9.96568 7.54327 9.64918 7.22264 9.49908L6.00685 8.9171C5.82804 8.81876 5.6358 8.794 5.48734 8.794C5.32693 8.794 5.14324 8.8229 4.96607 8.91246L3.74055 9.49909C3.41988 9.64921 3.15443 9.96581 3.15443 10.3701V13.2537C3.15154 13.2554 3.14809 13.2572 3.14402 13.2591L3.14402 13.2591L3.14127 13.2604L0.510882 14.502L0.500075 8.66733C0.502931 8.66564 0.506324 8.66382 0.510318 8.66197L0.510327 8.66199L0.514391 8.66006L5.4013 6.33704C5.40144 6.33697 5.40158 6.33691 5.40171 6.33684C5.41956 6.32843 5.43417 6.32326 5.44473 6.32044C5.45021 6.31898 5.45351 6.31844 5.45475 6.31827H5.46989C5.51744 6.32463 5.54148 6.33292 5.55026 6.337C5.55035 6.33705 5.55045 6.33709 5.55055 6.33714L10.4372 8.66006ZM34.0945 7.04242L34.1205 7.03167L34.1452 7.01806C34.3388 6.91138 34.5076 6.70405 34.5076 6.42781V0.607552L37.1515 1.82465C37.1517 1.82474 37.1519 1.82482 37.152 1.8249C37.156 1.82678 37.1593 1.82858 37.1621 1.83022V13.3679C37.1592 13.3696 37.1557 13.3715 37.1517 13.3734L37.147 13.3756L32.2618 15.7074C32.2615 15.7075 32.2612 15.7076 32.2609 15.7078C32.2407 15.7171 32.2127 15.7241 32.1805 15.7241C32.1483 15.7241 32.1203 15.7171 32.1001 15.7078C32.0998 15.7076 32.0995 15.7075 32.0992 15.7074L27.214 13.3756L27.214 13.3756L27.2093 13.3734C27.2052 13.3715 27.2018 13.3696 27.1989 13.3679V8.79122C27.2018 8.7895 27.2052 8.78765 27.2093 8.78576L27.2093 8.78579L27.214 8.78355L32.0992 6.45179C32.0995 6.45165 32.0998 6.45151 32.1001 6.45137C32.1203 6.44204 32.1483 6.43503 32.1805 6.43503C32.2128 6.43503 32.2409 6.44211 32.2612 6.4515C32.2614 6.4516 32.2616 6.45169 32.2618 6.45179L33.4818 7.03173L33.4937 7.03739L33.5059 7.04242C33.6971 7.12124 33.9033 7.12124 34.0945 7.04242ZM37.1621 13.4078C37.1621 13.4076 37.1621 13.4074 37.1621 13.4073V13.4078ZM27.1989 13.4078V13.4073V13.4078ZM32.4428 13.2429L32.4572 13.237L32.4713 13.2303L34.1346 12.4344C34.369 12.3298 34.4962 12.1061 34.4962 11.8747V10.2749C34.4962 10.0771 34.3889 9.82867 34.1346 9.71522L32.4713 8.9192L32.4572 8.91248L32.4428 8.90664C32.358 8.87237 32.2686 8.85588 32.1805 8.85588C32.0924 8.85588 32.003 8.87237 31.9182 8.90664L31.9037 8.91248L31.8897 8.9192L30.2263 9.71526C29.9919 9.81982 29.8648 10.0435 29.8648 10.2749V11.8747C29.8648 12.0732 29.9726 12.3209 30.2262 12.4343L31.8897 13.2303L31.9037 13.237L31.9182 13.2429C32.003 13.2771 32.0924 13.2936 32.1805 13.2936C32.2686 13.2936 32.358 13.2771 32.4428 13.2429ZM50.5 8.71963V9.78383L50.4947 9.78639L47.857 11.0574V10.2845C47.857 9.95287 47.6354 9.73332 47.4366 9.6307L47.4287 9.62663L47.4207 9.62284L45.894 8.90224C45.7773 8.84372 45.6496 8.81554 45.5241 8.81554C45.3986 8.81554 45.2709 8.84371 45.1542 8.90221L43.6357 9.61904C43.3813 9.73053 43.1911 9.98364 43.1911 10.2845V11.7415C43.1911 12.0735 43.4134 12.2928 43.6117 12.3952L43.619 12.399L43.6265 12.4025L48.0195 14.4895L45.6035 15.6008L45.5969 15.6038L45.5904 15.607C45.5618 15.6212 45.5026 15.6273 45.4473 15.602C45.447 15.6018 45.4467 15.6017 45.4465 15.6016L40.5956 13.3173L40.5933 13.3162C40.5892 13.3143 40.5858 13.3125 40.5829 13.3108V8.73403C40.5858 8.73233 40.5892 8.73051 40.5932 8.72865L40.598 8.72637L45.4832 6.39469C45.4835 6.39456 45.4837 6.39443 45.484 6.3943C45.5042 6.38496 45.5323 6.37793 45.5645 6.37793C45.5966 6.37793 45.6245 6.38492 45.6448 6.39422C45.6451 6.39438 45.6455 6.39453 45.6458 6.39469L50.4898 8.71369C50.4904 8.71398 50.4909 8.71427 50.4915 8.71456C50.4947 8.71625 50.4976 8.71797 50.5 8.71963ZM40.5829 8.6941C40.5829 8.69431 40.5829 8.69451 40.5829 8.69472V8.6941Z" fill="#333333" stroke="black"/>
<path d="M45.4895 10.0177C45.5066 10.0084 45.5267 10.0034 45.5472 10.0034C45.5677 10.0034 45.5877 10.0084 45.6048 10.0177L46.5386 10.4653C46.5732 10.4844 46.5962 10.5129 46.5962 10.551V11.4461C46.5962 11.4842 46.5733 11.5128 46.5386 11.5318L45.6048 11.9794C45.5877 11.9887 45.5677 11.9937 45.5472 11.9937C45.5267 11.9937 45.5066 11.9887 45.4895 11.9794L44.5558 11.5318C44.5212 11.5128 44.4982 11.4842 44.4982 11.4461V10.551C44.4982 10.5129 44.5211 10.4843 44.5558 10.4653L45.4895 10.0177Z" fill="#539E43"/>
<path d="M19.125 5.96072C19.0354 5.91862 18.9341 5.89648 18.831 5.89648C18.728 5.89648 18.6267 5.91862 18.5371 5.96072L13.6838 8.27455C13.4993 8.36024 13.3956 8.52214 13.3956 8.69352V13.3311C13.3956 13.5025 13.5109 13.6644 13.6838 13.75L18.5371 16.064C18.6267 16.1061 18.728 16.1283 18.831 16.1283C18.9341 16.1283 19.0354 16.1061 19.125 16.064L23.9783 13.75C24.1628 13.6644 24.2666 13.5025 24.2666 13.3311V8.6936C24.2666 8.52222 24.1512 8.36032 23.9783 8.27463L19.125 5.96072Z" fill="url(#paint0_linear_1312_326)"/>
<mask id="mask0_1312_326" style="mask-type:luminance" maskUnits="userSpaceOnUse" x="13" y="5" width="12" height="12">
<path d="M19.125 5.96072C19.0354 5.91862 18.9341 5.89648 18.831 5.89648C18.728 5.89648 18.6267 5.91862 18.5371 5.96072L13.6838 8.27455C13.4993 8.36024 13.3956 8.52214 13.3956 8.69352V13.3311C13.3956 13.5025 13.5109 13.6644 13.6838 13.75L18.5371 16.064C18.6267 16.1061 18.728 16.1283 18.831 16.1283C18.9341 16.1283 19.0354 16.1061 19.125 16.064L23.9783 13.75C24.1628 13.6644 24.2666 13.5025 24.2666 13.3311V8.6936C24.2666 8.52222 24.1512 8.36032 23.9783 8.27463L19.125 5.96072Z" fill="white"/>
</mask>
<g mask="url(#mask0_1312_326)">
<path d="M23.9898 8.27512L19.1135 5.9612C19.0656 5.9412 19.0154 5.92524 18.9636 5.91357L13.4993 13.646C13.5446 13.6916 13.5993 13.7303 13.6608 13.7602L18.5371 16.0742C18.6755 16.1409 18.8369 16.1599 18.9867 16.1218L24.1167 8.37044C24.0821 8.33238 24.0359 8.30362 23.9898 8.27512Z" fill="url(#paint1_linear_1312_326)"/>
</g>
<mask id="mask1_1312_326" style="mask-type:luminance" maskUnits="userSpaceOnUse" x="13" y="5" width="12" height="12">
<path d="M19.125 5.96072C19.0354 5.91862 18.9341 5.89648 18.831 5.89648C18.728 5.89648 18.6267 5.91862 18.5371 5.96072L13.6838 8.27455C13.4993 8.36024 13.3956 8.52214 13.3956 8.69352V13.3311C13.3956 13.5025 13.5109 13.6644 13.6838 13.75L18.5371 16.064C18.6267 16.1061 18.728 16.1283 18.831 16.1283C18.9341 16.1283 19.0354 16.1061 19.125 16.064L23.9783 13.75C24.1628 13.6644 24.2666 13.5025 24.2666 13.3311V8.6936C24.2666 8.52222 24.1512 8.36032 23.9783 8.27463L19.125 5.96072Z" fill="white"/>
</mask>
<g mask="url(#mask1_1312_326)">
<path fill-rule="evenodd" clip-rule="evenodd" d="M24.0014 13.7503C24.1397 13.6836 24.2435 13.5693 24.2897 13.4456L18.9405 5.90369C18.8021 5.88465 18.6522 5.89413 18.5255 5.96078L13.6837 8.26531L18.9059 16.1309C18.9818 16.1207 19.0556 16.1015 19.1249 16.0738L24.0014 13.7503Z" fill="url(#paint2_linear_1312_326)"/>
<path fill-rule="evenodd" clip-rule="evenodd" d="M24.0014 13.7503L19.1366 16.0643C19.0679 16.0932 18.9939 16.1125 18.9175 16.1214L19.0098 16.2642L24.4049 13.6837V13.6265L24.2665 13.436C24.2435 13.5693 24.1398 13.6836 24.0014 13.7503Z" fill="url(#paint3_linear_1312_326)"/>
<path fill-rule="evenodd" clip-rule="evenodd" d="M24.0014 13.7503L19.1366 16.0643C19.0679 16.0932 18.9939 16.1125 18.9175 16.1214L19.0098 16.2642L24.4049 13.6837V13.6265L24.2665 13.436C24.2435 13.5693 24.1398 13.6836 24.0014 13.7503Z" fill="url(#paint4_linear_1312_326)"/>
</g>
<defs>
<linearGradient id="paint0_linear_1312_326" x1="754.67" y1="184.82" x2="355.104" y2="944.882" gradientUnits="userSpaceOnUse">
<stop stop-color="#41873F"/>
<stop offset="0.3288" stop-color="#418B3D"/>
<stop offset="0.6352" stop-color="#419637"/>
<stop offset="0.9319" stop-color="#3FA92D"/>
<stop offset="1" stop-color="#3FAE2A"/>
</linearGradient>
<linearGradient id="paint1_linear_1312_326" x1="472.988" y1="570.164" x2="1677.47" y2="-222.052" gradientUnits="userSpaceOnUse">
<stop offset="0.1376" stop-color="#41873F"/>
<stop offset="0.4032" stop-color="#54A044"/>
<stop offset="0.7136" stop-color="#66B848"/>
<stop offset="0.9081" stop-color="#6CC04A"/>
</linearGradient>
<linearGradient id="paint2_linear_1312_326" x1="-32.8656" y1="517.66" x2="1090.17" y2="517.66" gradientUnits="userSpaceOnUse">
<stop offset="0.09192" stop-color="#6CC04A"/>
<stop offset="0.2864" stop-color="#66B848"/>
<stop offset="0.5968" stop-color="#54A044"/>
<stop offset="0.8624" stop-color="#41873F"/>
</linearGradient>
<linearGradient id="paint3_linear_1312_326" x1="-551.003" y1="155.624" x2="572.025" y2="155.624" gradientUnits="userSpaceOnUse">
<stop offset="0.09192" stop-color="#6CC04A"/>
<stop offset="0.2864" stop-color="#66B848"/>
<stop offset="0.5968" stop-color="#54A044"/>
<stop offset="0.8624" stop-color="#41873F"/>
</linearGradient>
<linearGradient id="paint4_linear_1312_326" x1="735.635" y1="-583.512" x2="539.313" y2="661.854" gradientUnits="userSpaceOnUse">
<stop stop-color="#41873F"/>
<stop offset="0.3288" stop-color="#418B3D"/>
<stop offset="0.6352" stop-color="#419637"/>
<stop offset="0.9319" stop-color="#3FA92D"/>
<stop offset="1" stop-color="#3FAE2A"/>
</linearGradient>
</defs>
</svg>
