<svg width="48" height="38" viewBox="0 0 48 38" fill="none" xmlns="http://www.w3.org/2000/svg">
<g filter="url(#filter0_d_1312_315)">
<path d="M38.4189 17.2677C37.0273 17.2748 35.8178 17.61 34.8052 18.1055C34.4334 17.3695 34.0619 16.7139 33.9964 16.233C33.9234 15.672 33.8361 15.3295 33.9234 14.6592C34.0109 13.9889 34.4044 13.0344 34.397 12.9616C34.3897 12.8888 34.3095 12.5463 33.5081 12.5391C32.7067 12.5319 32.0145 12.692 31.9344 12.9033C31.8542 13.1145 31.7013 13.5955 31.5992 14.0908C31.4608 14.8195 29.9964 17.4205 29.1586 18.783C28.8889 18.2513 28.6558 17.7848 28.6047 17.4133C28.5319 16.8523 28.4444 16.5098 28.5319 15.8395C28.6194 15.1692 29.0128 14.2148 29.0055 14.1419C28.9981 14.0691 28.918 13.7266 28.1166 13.7194C27.315 13.712 26.6228 13.8723 26.5428 14.0836C26.4627 14.295 26.3752 14.7903 26.2077 15.2713C26.0402 15.7522 24.0947 20.0947 23.5847 21.2166C23.3786 21.6706 23.1624 22.1201 22.9363 22.5645C22.9363 22.5645 22.9289 22.5864 22.907 22.6228C22.836 22.7622 22.7632 22.9006 22.6886 23.0381V23.0453C22.5792 23.2422 22.4627 23.4242 22.4044 23.4242C22.3606 23.4242 22.2805 22.8997 22.4189 22.1856C22.7103 20.6775 23.4025 18.3314 23.3953 18.2513C23.3953 18.2075 23.5264 17.7995 22.9436 17.5881C22.3752 17.3769 22.1713 17.7266 22.1202 17.7266C22.0691 17.7266 22.0327 17.8505 22.0327 17.8505C22.0327 17.8505 22.6667 15.213 20.8233 15.213C19.6722 15.213 18.0838 16.4734 17.2969 17.61C16.4024 18.0968 15.5086 18.585 14.6156 19.0745C14.1859 19.315 13.7414 19.5555 13.3261 19.7813C13.2969 19.7522 13.2678 19.7156 13.2386 19.6866C11.0091 17.3041 6.88531 15.6209 7.06016 12.4225C7.12578 11.2567 7.52641 8.19657 14.98 4.48079C21.1147 1.45704 25.9964 2.29485 26.8416 4.15282C28.0509 6.805 24.2259 11.7303 17.887 12.4442C15.4681 12.7139 14.2003 11.7813 13.8798 11.4316C13.5447 11.0672 13.4936 11.0453 13.3697 11.1183C13.1658 11.2277 13.2969 11.5555 13.3697 11.7448C13.5592 12.2402 14.3388 13.1145 15.6575 13.5445C16.8233 13.9233 19.6575 14.1347 23.0892 12.8086C26.9289 11.3222 29.9308 7.1911 29.0492 3.73032C28.1675 0.218442 22.3388 -0.939996 16.8233 1.01985C13.5447 2.18579 9.98907 4.02172 7.43172 6.41157C4.39344 9.25297 3.9125 11.723 4.10922 12.7577C4.8161 16.4297 9.87985 18.8195 11.9053 20.59C11.8033 20.6483 11.7084 20.6994 11.6284 20.7431C10.6156 21.2458 6.75407 23.2639 5.79235 25.3988C4.69953 27.8177 5.96735 29.5519 6.80516 29.7848C9.40625 30.5063 12.0802 29.2094 13.5155 27.0672C14.9508 24.9252 14.7759 22.1419 14.113 20.8669C14.1056 20.8523 14.0984 20.8377 14.0838 20.8231C14.3461 20.6702 14.6156 20.5098 14.878 20.3569C15.3601 20.0718 15.8484 19.7973 16.3425 19.5334C16.0947 20.2111 15.9125 21.0198 15.8252 22.1856C15.7158 23.5555 16.2767 25.3331 17.0127 26.0325C17.3406 26.3388 17.7267 26.3459 17.9745 26.3459C18.8342 26.3459 19.2205 25.6319 19.6503 24.7867C20.1748 23.7522 20.6484 22.55 20.6484 22.55C20.6484 22.55 20.0583 25.7995 21.6613 25.7995C22.2441 25.7995 22.8342 25.0417 23.0966 24.6556V24.6628C23.0966 24.6628 23.1111 24.6409 23.1403 24.59C23.1986 24.4953 23.235 24.4369 23.235 24.4369V24.4225C23.4681 24.0144 23.9928 23.0891 24.7723 21.5517C25.7778 19.57 26.7469 17.0928 26.7469 17.0928C26.7469 17.0928 26.8344 17.6975 27.133 18.703C27.308 19.2931 27.672 19.9416 27.9636 20.5681C27.7305 20.8961 27.5847 21.0781 27.5847 21.0781L27.592 21.0855C27.4025 21.3331 27.1986 21.6027 26.9727 21.8652C26.1784 22.8122 25.2314 23.898 25.1002 24.2111C24.947 24.5827 24.9836 24.8523 25.2752 25.0709C25.4864 25.2313 25.8652 25.253 26.2514 25.2313C26.9655 25.1802 27.4681 25.0053 27.7158 24.8961C28.102 24.7577 28.5538 24.5463 28.9763 24.233C29.7559 23.6573 30.2294 22.8341 30.1858 21.7486C30.1639 21.1511 29.9672 20.5536 29.7267 19.9925C29.7997 19.8906 29.8652 19.7886 29.9381 19.6866C31.1694 17.8869 32.1239 15.9123 32.1239 15.9123C32.1239 15.9123 32.2114 16.517 32.51 17.5227C32.6558 18.0327 32.9545 18.5864 33.2167 19.1255C32.0583 20.0655 31.3442 21.1583 31.0892 21.8723C30.6303 23.1984 30.9872 23.7958 31.6648 23.9342C31.9708 23.9998 32.408 23.8541 32.7286 23.7156C33.1366 23.5845 33.6175 23.3588 34.0766 23.0234C34.8563 22.448 35.6066 21.6464 35.5628 20.5609C35.5409 20.0655 35.4098 19.5772 35.2277 19.1036C36.2113 18.6958 37.4791 18.4698 39.0964 18.6592C42.5647 19.0672 43.2495 21.2311 43.1183 22.142C42.9872 23.0527 42.2586 23.5481 42.0183 23.7011C41.7777 23.8542 41.6977 23.9052 41.7195 24.0144C41.7486 24.1747 41.8652 24.1675 42.0692 24.1383C42.3534 24.0873 43.8908 23.4023 43.9563 21.7266C44.0656 19.5845 42.0255 17.2458 38.4189 17.2677ZM11.6648 26.2877C10.5136 27.5408 8.91078 28.0144 8.2186 27.6138C7.47547 27.1838 7.76688 25.3331 9.18032 24.0072C10.04 23.1984 11.1475 22.4478 11.8834 21.9889C12.0509 21.8869 12.2988 21.7413 12.5975 21.5591C12.6484 21.5298 12.6777 21.5153 12.6777 21.5153L12.8525 21.4059C13.3697 23.3003 12.8744 24.9689 11.6648 26.2877ZM20.0438 20.59C19.643 21.5664 18.8052 24.0655 18.2952 23.927C17.858 23.8105 17.5883 21.9161 18.2077 20.0436C18.5209 19.1036 19.1839 17.9816 19.5702 17.5445C20.1967 16.845 20.8889 16.6117 21.0564 16.8961C21.2678 17.2677 20.2914 19.978 20.0438 20.59ZM26.9581 23.8978C26.7905 23.9853 26.6303 24.0436 26.5573 23.9998C26.5064 23.9706 26.6303 23.8541 26.6303 23.8541C26.6303 23.8541 27.4973 22.9216 27.8397 22.4989C28.0366 22.2513 28.2695 21.9598 28.5173 21.6319V21.7266C28.5173 22.8414 27.4389 23.5919 26.958 23.8978M32.2913 22.6811C32.1673 22.5936 32.1892 22.3022 32.6045 21.3914C32.7648 21.0344 33.1436 20.437 33.7922 19.8614C33.865 20.0945 33.9161 20.3205 33.9088 20.5317C33.9014 21.938 32.8961 22.4625 32.2913 22.6811Z" fill="#CD6799"/>
</g>
<defs>
<filter id="filter0_d_1312_315" x="0" y="0" width="48" height="38" filterUnits="userSpaceOnUse" color-interpolation-filters="sRGB">
<feFlood flood-opacity="0" result="BackgroundImageFix"/>
<feColorMatrix in="SourceAlpha" type="matrix" values="0 0 0 0 0 0 0 0 0 0 0 0 0 0 0 0 0 0 127 0" result="hardAlpha"/>
<feOffset dy="4"/>
<feGaussianBlur stdDeviation="2"/>
<feComposite in2="hardAlpha" operator="out"/>
<feColorMatrix type="matrix" values="0 0 0 0 0 0 0 0 0 0 0 0 0 0 0 0 0 0 0.25 0"/>
<feBlend mode="normal" in2="BackgroundImageFix" result="effect1_dropShadow_1312_315"/>
<feBlend mode="normal" in="SourceGraphic" in2="effect1_dropShadow_1312_315" result="shape"/>
</filter>
</defs>
</svg>
