<svg width="31" height="30" viewBox="0 0 31 30" fill="none" xmlns="http://www.w3.org/2000/svg">
<circle cx="15.5" cy="15" r="15" fill="#79B2F2"/>
<path d="M22.8625 7.90999C21.9456 6.9841 20.8536 6.24996 19.6501 5.75036C18.4465 5.25075 17.1556 4.99568 15.8525 4.99999C10.3925 4.99999 5.94255 9.44999 5.94255 14.91C5.94255 16.66 6.40255 18.36 7.26255 19.86L5.86255 25L11.1125 23.62C12.5625 24.41 14.1925 24.83 15.8525 24.83C21.3125 24.83 25.7626 20.38 25.7626 14.92C25.7626 12.27 24.7325 9.77999 22.8625 7.90999ZM15.8525 23.15C14.3725 23.15 12.9225 22.75 11.6525 22L11.3525 21.82L8.23255 22.64L9.06255 19.6L8.86255 19.29C8.0401 17.9771 7.60347 16.4593 7.60255 14.91C7.60255 10.37 11.3025 6.66999 15.8425 6.66999C18.0425 6.66999 20.1125 7.52999 21.6625 9.08999C22.4302 9.85386 23.0385 10.7625 23.4522 11.7633C23.8659 12.7641 24.0767 13.8371 24.0725 14.92C24.0926 19.46 20.3925 23.15 15.8525 23.15ZM20.3725 16.99C20.1225 16.87 18.9025 16.27 18.6825 16.18C18.4525 16.1 18.2925 16.06 18.1225 16.3C17.9525 16.55 17.4825 17.11 17.3425 17.27C17.2025 17.44 17.0525 17.46 16.8025 17.33C16.5525 17.21 15.7525 16.94 14.8125 16.1C14.0725 15.44 13.5825 14.63 13.4325 14.38C13.2925 14.13 13.4125 14 13.5425 13.87C13.6525 13.76 13.7925 13.58 13.9125 13.44C14.0325 13.3 14.0825 13.19 14.1625 13.03C14.2425 12.86 14.2025 12.72 14.1425 12.6C14.0825 12.48 13.5825 11.26 13.3825 10.76C13.1825 10.28 12.9725 10.34 12.8225 10.33H12.3425C12.1725 10.33 11.9125 10.39 11.6825 10.64C11.4625 10.89 10.8225 11.49 10.8225 12.71C10.8225 13.93 11.7125 15.11 11.8325 15.27C11.9525 15.44 13.5825 17.94 16.0625 19.01C16.6525 19.27 17.1125 19.42 17.4725 19.53C18.0625 19.72 18.6025 19.69 19.0325 19.63C19.5125 19.56 20.5025 19.03 20.7025 18.45C20.9125 17.87 20.9125 17.38 20.8425 17.27C20.7725 17.16 20.6225 17.11 20.3725 16.99Z" fill="white"/>
</svg>
